<svg xmlns="http://www.w3.org/2000/svg" width="143.87" height="35" viewBox="0 0 143.87 35"><rect class="svg__rect" x="0" y="0" width="64.89" height="35" fill="#41B883"/><rect class="svg__rect" x="62.89" y="0" width="80.98000000000002" height="35" fill="#34495E"/><path class="svg__text" d="M14.08 19.16L14.08 19.16L14.08 13.47L15.56 13.47L15.56 19.18Q15.56 20.03 15.99 20.48Q16.43 20.93 17.27 20.93L17.27 20.93Q18.98 20.93 18.98 19.13L18.98 19.13L18.98 13.47L20.46 13.47L20.46 19.17Q20.46 20.53 19.59 21.32Q18.72 22.12 17.27 22.12L17.27 22.12Q15.81 22.12 14.94 21.33Q14.08 20.55 14.08 19.16ZM24.59 19.42L24.59 19.42L26.08 19.42Q26.08 20.15 26.56 20.55Q27.04 20.95 27.93 20.95L27.93 20.95Q28.71 20.95 29.10 20.63Q29.49 20.32 29.49 19.80L29.49 19.80Q29.49 19.24 29.09 18.94Q28.70 18.63 27.66 18.32Q26.63 18.01 26.02 17.63L26.02 17.63Q24.86 16.90 24.86 15.72L24.86 15.72Q24.86 14.69 25.70 14.02Q26.54 13.35 27.88 13.35L27.88 13.35Q28.77 13.35 29.47 13.68Q30.17 14.01 30.56 14.61Q30.96 15.22 30.96 15.96L30.96 15.96L29.49 15.96Q29.49 15.29 29.07 14.91Q28.65 14.54 27.87 14.54L27.87 14.54Q27.14 14.54 26.74 14.85Q26.34 15.16 26.34 15.71L26.34 15.71Q26.34 16.18 26.77 16.50Q27.21 16.81 28.20 17.10Q29.20 17.40 29.80 17.78Q30.41 18.16 30.69 18.65Q30.97 19.13 30.97 19.79L30.97 19.79Q30.97 20.86 30.15 21.49Q29.33 22.12 27.93 22.12L27.93 22.12Q27.01 22.12 26.23 21.77Q25.46 21.43 25.02 20.83Q24.59 20.22 24.59 19.42ZM40.84 22L35.26 22L35.26 13.47L40.80 13.47L40.80 14.66L36.74 14.66L36.74 17.02L40.24 17.02L40.24 18.19L36.74 18.19L36.74 20.82L40.84 20.82L40.84 22ZM44.60 19.42L44.60 19.42L46.08 19.42Q46.08 20.15 46.56 20.55Q47.04 20.95 47.94 20.95L47.94 20.95Q48.71 20.95 49.10 20.63Q49.49 20.32 49.49 19.80L49.49 19.80Q49.49 19.24 49.10 18.94Q48.70 18.63 47.67 18.32Q46.64 18.01 46.03 17.63L46.03 17.63Q44.86 16.90 44.86 15.72L44.86 15.72Q44.86 14.69 45.70 14.02Q46.54 13.35 47.89 13.35L47.89 13.35Q48.78 13.35 49.47 13.68Q50.17 14.01 50.57 14.61Q50.97 15.22 50.97 15.96L50.97 15.96L49.49 15.96Q49.49 15.29 49.07 14.91Q48.65 14.54 47.87 14.54L47.87 14.54Q47.15 14.54 46.75 14.85Q46.34 15.16 46.34 15.71L46.34 15.71Q46.34 16.18 46.78 16.50Q47.21 16.81 48.21 17.10Q49.20 17.40 49.81 17.78Q50.41 18.16 50.69 18.65Q50.97 19.13 50.97 19.79L50.97 19.79Q50.97 20.86 50.16 21.49Q49.34 22.12 47.94 22.12L47.94 22.12Q47.01 22.12 46.24 21.77Q45.46 21.43 45.03 20.83Q44.60 20.22 44.60 19.42Z" fill="#34495E"/><path class="svg__text" d="M79.66 22L76.07 13.60L78.64 13.60L80.92 19.07L83.25 13.60L85.60 13.60L82.00 22L79.66 22ZM89.68 18.26L89.68 18.26L89.68 13.60L92.06 13.60L92.06 18.19Q92.06 20.20 93.65 20.20L93.65 20.20Q95.24 20.20 95.24 18.19L95.24 18.19L95.24 13.60L97.58 13.60L97.58 18.26Q97.58 20.13 96.54 21.15Q95.50 22.17 93.63 22.17L93.63 22.17Q91.76 22.17 90.72 21.15Q89.68 20.13 89.68 18.26ZM109.41 22L102.67 22L102.67 13.60L109.26 13.60L109.26 15.44L105.02 15.44L105.02 16.85L108.75 16.85L108.75 18.63L105.02 18.63L105.02 20.17L109.41 20.17L109.41 22ZM113.14 20.93L113.14 20.93L114.43 19.40Q115.10 20.27 115.87 20.27L115.87 20.27Q115.88 20.27 115.88 20.27L115.88 20.27Q116.40 20.27 116.67 19.96Q116.94 19.65 116.94 19.05L116.94 19.05L116.94 15.44L114.04 15.44L114.04 13.60L119.29 13.60L119.29 18.91Q119.29 20.54 118.47 21.36Q117.65 22.17 116.05 22.17L116.05 22.17Q115.13 22.17 114.37 21.85Q113.62 21.53 113.14 20.93ZM123.79 21.24L123.79 21.24L124.57 19.49Q125.14 19.86 125.88 20.09Q126.62 20.32 127.35 20.32L127.35 20.32Q128.71 20.32 128.72 19.64L128.72 19.64Q128.72 19.28 128.33 19.11Q127.94 18.93 127.07 18.74L127.07 18.74Q126.12 18.53 125.49 18.30Q124.85 18.06 124.40 17.55Q123.94 17.03 123.94 16.16L123.94 16.16Q123.94 15.39 124.36 14.77Q124.78 14.15 125.61 13.79Q126.45 13.43 127.66 13.43L127.66 13.43Q128.48 13.43 129.29 13.62Q130.09 13.80 130.71 14.17L130.71 14.17L129.98 15.93Q128.78 15.28 127.64 15.28L127.64 15.28Q126.94 15.28 126.61 15.49Q126.29 15.70 126.29 16.04L126.29 16.04Q126.29 16.37 126.67 16.54Q127.06 16.71 127.91 16.89L127.91 16.89Q128.87 17.10 129.50 17.33Q130.13 17.56 130.59 18.07Q131.05 18.58 131.05 19.46L131.05 19.46Q131.05 20.21 130.64 20.83Q130.22 21.44 129.38 21.80Q128.53 22.17 127.33 22.17L127.33 22.17Q126.31 22.17 125.35 21.92Q124.39 21.67 123.79 21.24Z" fill="#41B883" x="75.89"/></svg>