<svg xmlns="http://www.w3.org/2000/svg" width="205.56" height="35" viewBox="0 0 205.56 35"><rect class="svg__rect" x="0" y="0" width="64.89" height="35" fill="#6DB33F"/><rect class="svg__rect" x="62.89" y="0" width="142.67000000000002" height="35" fill="#B2FE7B"/><path class="svg__text" d="M14.08 19.16L14.08 19.16L14.08 13.47L15.56 13.47L15.56 19.18Q15.56 20.03 15.99 20.48Q16.43 20.93 17.27 20.93L17.27 20.93Q18.98 20.93 18.98 19.13L18.98 19.13L18.98 13.47L20.46 13.47L20.46 19.17Q20.46 20.53 19.59 21.32Q18.72 22.12 17.27 22.12L17.27 22.12Q15.81 22.12 14.94 21.33Q14.08 20.55 14.08 19.16ZM24.59 19.42L24.59 19.42L26.08 19.42Q26.08 20.15 26.56 20.55Q27.04 20.95 27.93 20.95L27.93 20.95Q28.71 20.95 29.10 20.63Q29.49 20.32 29.49 19.80L29.49 19.80Q29.49 19.24 29.09 18.94Q28.70 18.63 27.66 18.32Q26.63 18.01 26.02 17.63L26.02 17.63Q24.86 16.90 24.86 15.72L24.86 15.72Q24.86 14.69 25.70 14.02Q26.54 13.35 27.88 13.35L27.88 13.35Q28.77 13.35 29.47 13.68Q30.17 14.01 30.56 14.61Q30.96 15.22 30.96 15.96L30.96 15.96L29.49 15.96Q29.49 15.29 29.07 14.91Q28.65 14.54 27.87 14.54L27.87 14.54Q27.14 14.54 26.74 14.85Q26.34 15.16 26.34 15.71L26.34 15.71Q26.34 16.18 26.77 16.50Q27.21 16.81 28.20 17.10Q29.20 17.40 29.80 17.78Q30.41 18.16 30.69 18.65Q30.97 19.13 30.97 19.79L30.97 19.79Q30.97 20.86 30.15 21.49Q29.33 22.12 27.93 22.12L27.93 22.12Q27.01 22.12 26.23 21.77Q25.46 21.43 25.02 20.83Q24.59 20.22 24.59 19.42ZM40.84 22L35.26 22L35.26 13.47L40.80 13.47L40.80 14.66L36.74 14.66L36.74 17.02L40.24 17.02L40.24 18.19L36.74 18.19L36.74 20.82L40.84 20.82L40.84 22ZM44.60 19.42L44.60 19.42L46.08 19.42Q46.08 20.15 46.56 20.55Q47.04 20.95 47.94 20.95L47.94 20.95Q48.71 20.95 49.10 20.63Q49.49 20.32 49.49 19.80L49.49 19.80Q49.49 19.24 49.10 18.94Q48.70 18.63 47.67 18.32Q46.64 18.01 46.03 17.63L46.03 17.63Q44.86 16.90 44.86 15.72L44.86 15.72Q44.86 14.69 45.70 14.02Q46.54 13.35 47.89 13.35L47.89 13.35Q48.78 13.35 49.47 13.68Q50.17 14.01 50.57 14.61Q50.97 15.22 50.97 15.96L50.97 15.96L49.49 15.96Q49.49 15.29 49.07 14.91Q48.65 14.54 47.87 14.54L47.87 14.54Q47.15 14.54 46.75 14.85Q46.34 15.16 46.34 15.71L46.34 15.71Q46.34 16.18 46.78 16.50Q47.21 16.81 48.21 17.10Q49.20 17.40 49.81 17.78Q50.41 18.16 50.69 18.65Q50.97 19.13 50.97 19.79L50.97 19.79Q50.97 20.86 50.16 21.49Q49.34 22.12 47.94 22.12L47.94 22.12Q47.01 22.12 46.24 21.77Q45.46 21.43 45.03 20.83Q44.60 20.22 44.60 19.42Z" fill="#FFFFFF"/><path class="svg__text" d="M76.49 21.24L76.49 21.24L77.27 19.49Q77.83 19.86 78.58 20.09Q79.32 20.32 80.04 20.32L80.04 20.32Q81.41 20.32 81.41 19.64L81.41 19.64Q81.41 19.28 81.02 19.11Q80.63 18.93 79.77 18.74L79.77 18.74Q78.82 18.53 78.18 18.30Q77.55 18.06 77.09 17.55Q76.64 17.03 76.64 16.16L76.64 16.16Q76.64 15.39 77.06 14.77Q77.48 14.15 78.31 13.79Q79.15 13.43 80.35 13.43L80.35 13.43Q81.18 13.43 81.99 13.62Q82.79 13.80 83.41 14.17L83.41 14.17L82.67 15.93Q81.47 15.28 80.34 15.28L80.34 15.28Q79.63 15.28 79.31 15.49Q78.99 15.70 78.99 16.04L78.99 16.04Q78.99 16.37 79.37 16.54Q79.76 16.71 80.61 16.89L80.61 16.89Q81.57 17.10 82.20 17.33Q82.83 17.56 83.29 18.07Q83.75 18.58 83.75 19.46L83.75 19.46Q83.75 20.21 83.33 20.83Q82.91 21.44 82.07 21.80Q81.23 22.17 80.03 22.17L80.03 22.17Q79.01 22.17 78.05 21.92Q77.09 21.67 76.49 21.24ZM90.71 22L88.33 22L88.33 13.60L92.17 13.60Q93.31 13.60 94.15 13.98Q94.99 14.35 95.45 15.06Q95.90 15.76 95.90 16.71L95.90 16.71Q95.90 17.66 95.45 18.35Q94.99 19.05 94.15 19.42Q93.31 19.80 92.17 19.80L92.17 19.80L90.71 19.80L90.71 22ZM90.71 15.47L90.71 17.93L92.03 17.93Q92.76 17.93 93.13 17.61Q93.50 17.29 93.50 16.71L93.50 16.71Q93.50 16.12 93.13 15.80Q92.76 15.47 92.03 15.47L92.03 15.47L90.71 15.47ZM103.03 22L100.66 22L100.66 13.60L104.50 13.60Q105.64 13.60 106.48 13.98Q107.32 14.35 107.78 15.06Q108.23 15.76 108.23 16.71L108.23 16.71Q108.23 17.62 107.80 18.30Q107.38 18.98 106.59 19.36L106.59 19.36L108.40 22L105.85 22L104.33 19.77L103.03 19.77L103.03 22ZM103.03 15.47L103.03 17.93L104.35 17.93Q105.09 17.93 105.46 17.61Q105.83 17.29 105.83 16.71L105.83 16.71Q105.83 16.12 105.46 15.79Q105.09 15.47 104.35 15.47L104.35 15.47L103.03 15.47ZM115.40 22L113.02 22L113.02 13.60L115.40 13.60L115.40 22ZM122.90 22L120.57 22L120.57 13.60L122.53 13.60L126.24 18.07L126.24 13.60L128.56 13.60L128.56 22L126.61 22L122.90 17.52L122.90 22ZM133.30 17.80L133.30 17.80Q133.30 16.54 133.90 15.54Q134.49 14.55 135.56 13.99Q136.63 13.43 137.97 13.43L137.97 13.43Q139.15 13.43 140.09 13.83Q141.03 14.22 141.65 14.97L141.65 14.97L140.14 16.33Q139.29 15.40 138.11 15.40L138.11 15.40Q138.10 15.40 138.10 15.40L138.10 15.40Q137.02 15.40 136.36 16.06Q135.70 16.71 135.70 17.80L135.70 17.80Q135.70 18.50 136.00 19.04Q136.30 19.59 136.84 19.89Q137.38 20.20 138.07 20.20L138.07 20.20Q138.76 20.20 139.36 19.93L139.36 19.93L139.36 17.62L141.45 17.62L141.45 21.10Q140.73 21.61 139.80 21.89Q138.86 22.17 137.93 22.17L137.93 22.17Q136.61 22.17 135.55 21.61Q134.49 21.05 133.90 20.05Q133.30 19.06 133.30 17.80ZM150.99 22L146.45 22L146.45 13.60L150.75 13.60Q152.35 13.60 153.19 14.19Q154.03 14.79 154.03 15.79L154.03 15.79Q154.03 16.39 153.74 16.87Q153.44 17.34 152.90 17.62L152.90 17.62Q153.62 17.87 154.03 18.41Q154.44 18.94 154.44 19.70L154.44 19.70Q154.44 20.80 153.55 21.40Q152.66 22 150.99 22L150.99 22ZM148.80 18.58L148.80 20.28L150.79 20.28Q152.04 20.28 152.04 19.43L152.04 19.43Q152.04 18.58 150.79 18.58L150.79 18.58L148.80 18.58ZM148.80 15.31L148.80 16.94L150.43 16.94Q151.63 16.94 151.63 16.12L151.63 16.12Q151.63 15.31 150.43 15.31L150.43 15.31L148.80 15.31ZM158.73 17.80L158.73 17.80Q158.73 16.55 159.33 15.55Q159.94 14.56 161.00 14.00Q162.06 13.43 163.39 13.43L163.39 13.43Q164.72 13.43 165.79 14.00Q166.85 14.56 167.46 15.55Q168.06 16.55 168.06 17.80L168.06 17.80Q168.06 19.05 167.46 20.04Q166.85 21.04 165.79 21.60Q164.73 22.17 163.39 22.17L163.39 22.17Q162.06 22.17 161.00 21.60Q159.94 21.04 159.33 20.04Q158.73 19.05 158.73 17.80ZM161.12 17.80L161.12 17.80Q161.12 18.51 161.43 19.05Q161.73 19.60 162.24 19.90Q162.76 20.20 163.39 20.20L163.39 20.20Q164.03 20.20 164.55 19.90Q165.06 19.60 165.36 19.05Q165.66 18.51 165.66 17.80L165.66 17.80Q165.66 17.09 165.36 16.54Q165.06 16 164.55 15.70Q164.03 15.40 163.39 15.40L163.39 15.40Q162.75 15.40 162.24 15.70Q161.73 16 161.43 16.54Q161.12 17.09 161.12 17.80ZM172.36 17.80L172.36 17.80Q172.36 16.55 172.97 15.55Q173.57 14.56 174.63 14.00Q175.70 13.43 177.03 13.43L177.03 13.43Q178.36 13.43 179.42 14.00Q180.48 14.56 181.09 15.55Q181.70 16.55 181.70 17.80L181.70 17.80Q181.70 19.05 181.09 20.04Q180.48 21.04 179.42 21.60Q178.36 22.17 177.03 22.17L177.03 22.17Q175.70 22.17 174.63 21.60Q173.57 21.04 172.97 20.04Q172.36 19.05 172.36 17.80ZM174.76 17.80L174.76 17.80Q174.76 18.51 175.06 19.05Q175.36 19.60 175.88 19.90Q176.39 20.20 177.03 20.20L177.03 20.20Q177.67 20.20 178.18 19.90Q178.70 19.60 179.00 19.05Q179.29 18.51 179.29 17.80L179.29 17.80Q179.29 17.09 179.00 16.54Q178.70 16 178.18 15.70Q177.67 15.40 177.03 15.40L177.03 15.40Q176.39 15.40 175.88 15.70Q175.36 16 175.06 16.54Q174.76 17.09 174.76 17.80ZM188.22 15.48L185.63 15.48L185.63 13.60L193.16 13.60L193.16 15.48L190.59 15.48L190.59 22L188.22 22L188.22 15.48Z" fill="#6DB33F" x="75.89"/></svg>